<svg width="10" height="13" viewBox="0 0 10 13" fill="none" xmlns="http://www.w3.org/2000/svg">
<path d="M5.14844 2.92308C5.70313 2.92308 6.39844 2.53655 6.8125 2.02119C7.1875 1.55414 7.46094 0.901886 7.46094 0.249629C7.46094 0.161051 7.45313 0.072473 7.4375 0C6.82031 0.0241577 6.07813 0.426785 5.63281 0.966306C5.28125 1.37699 4.96094 2.02119 4.96094 2.6815C4.96094 2.77813 4.97656 2.87476 4.98438 2.90697C5.02344 2.91502 5.08594 2.92308 5.14844 2.92308ZM3.19531 12.6667C3.95313 12.6667 4.28906 12.1432 5.23438 12.1432C6.19531 12.1432 6.40625 12.6506 7.25 12.6506C8.07813 12.6506 8.63281 11.8614 9.15625 11.0884C9.74219 10.2026 9.98438 9.33291 10 9.29265C9.94531 9.27654 8.35938 8.60818 8.35938 6.73194C8.35938 5.10532 9.60938 4.37254 9.67969 4.31617C8.85156 3.09218 7.59375 3.05997 7.25 3.05997C6.32031 3.05997 5.5625 3.63975 5.08594 3.63975C4.57031 3.63975 3.89063 3.09218 3.08594 3.09218C1.55469 3.09218 0 4.39669 0 6.86078C0 8.39076 0.578125 10.0093 1.28906 11.0562C1.89844 11.9419 2.42969 12.6667 3.19531 12.6667Z" fill="white"/>
</svg>
