<svg width="10" height="10" viewBox="0 0 10 10" fill="none" xmlns="http://www.w3.org/2000/svg">
<g clip-path="url(#clip0_97_5)">
<mask id="mask0_97_5" style="mask-type:luminance" maskUnits="userSpaceOnUse" x="0" y="0" width="10" height="10">
<path d="M10 0H0V10H10V0Z" fill="white"/>
</mask>
<g mask="url(#mask0_97_5)">
<path d="M3.4836 0.328645C2.48445 0.675261 1.62278 1.33315 1.02516 2.20568C0.427541 3.07821 0.125473 4.11938 0.163325 5.17626C0.201177 6.23316 0.576955 7.25006 1.23546 8.07761C1.89397 8.90516 2.80049 9.49971 3.82188 9.77396C4.64995 9.98761 5.5175 9.99701 6.35 9.80131C7.10415 9.63191 7.8014 9.26956 8.37345 8.74976C8.9688 8.19221 9.401 7.48291 9.62345 6.69816C9.8652 5.84476 9.9082 4.94735 9.74925 4.07474H5.09925V6.00366H7.7922C7.7384 6.31131 7.62305 6.60491 7.4531 6.86696C7.28315 7.12901 7.0621 7.35406 6.80315 7.52866C6.47435 7.74626 6.10365 7.89261 5.71485 7.95836C5.32495 8.03086 4.92505 8.03086 4.53516 7.95836C4.13997 7.87671 3.76613 7.71361 3.43751 7.47941C2.9095 7.10566 2.51304 6.57466 2.3047 5.96226C2.09289 5.33831 2.09289 4.66194 2.3047 4.03802C2.453 3.60069 2.69816 3.2025 3.02188 2.87318C3.39235 2.48939 3.86136 2.21505 4.37747 2.08027C4.89359 1.94549 5.43685 1.95547 5.94765 2.10912C6.34675 2.23156 6.71165 2.44558 7.0133 2.73412C7.31695 2.43203 7.62005 2.12917 7.92265 1.82552C8.0789 1.66224 8.24925 1.50677 8.40315 1.33958C7.9426 0.911081 7.4021 0.577631 6.8125 0.358333C5.73885 -0.0315188 4.56405 -0.0419957 3.4836 0.328645Z" fill="white"/>
<path d="M3.48477 0.329025C4.56513 -0.0418679 5.73992 -0.0316668 6.81367 0.357931C7.40337 0.57872 7.94362 0.913775 8.40352 1.34387C8.24727 1.51106 8.08242 1.66731 7.92307 1.82981C7.61992 2.13241 7.31707 2.43397 7.01447 2.73449C6.71282 2.44596 6.34787 2.23193 5.94882 2.10949C5.43817 1.9553 4.89494 1.94475 4.37869 2.07898C3.86244 2.21321 3.39314 2.48704 3.02227 2.87043C2.69854 3.19975 2.45338 3.59794 2.30508 4.03527L0.685547 2.78137C1.26524 1.6318 2.26895 0.75248 3.48477 0.329025Z" fill="#E33629"/>
<path d="M0.255076 4.02344C0.34206 3.59201 0.48658 3.17421 0.684761 2.78125L2.3043 4.03828C2.09249 4.6622 2.09249 5.3386 2.3043 5.9625C1.76471 6.37915 1.22487 6.7979 0.684761 7.21875C0.188787 6.2315 0.0375234 5.10665 0.255076 4.02344Z" fill="#F8BD00"/>
<path d="M5.09994 4.07422H9.74994C9.90894 4.94683 9.86589 5.84425 9.62419 6.69765C9.40169 7.4824 8.96954 8.1917 8.37419 8.7492C7.85154 8.3414 7.32654 7.9367 6.80389 7.5289C7.06299 7.3541 7.28414 7.1288 7.45409 6.8665C7.62409 6.6042 7.73929 6.31025 7.79294 6.00235H5.09994C5.09919 5.36015 5.09994 4.71718 5.09994 4.07422Z" fill="#587DBD"/>
<path d="M0.683594 7.21865C1.2237 6.802 1.76354 6.38325 2.30312 5.9624C2.51188 6.57505 2.90891 7.10605 3.4375 7.4796C3.76715 7.7127 4.14179 7.87445 4.5375 7.9546C4.92738 8.0271 5.3273 8.0271 5.7172 7.9546C6.10595 7.8889 6.47665 7.7425 6.80545 7.5249C7.3281 7.9327 7.85315 8.3374 8.3758 8.7452C7.8038 9.2653 7.1066 9.62795 6.35235 9.79755C5.51985 9.99325 4.65228 9.9839 3.82422 9.7702C3.1693 9.59535 2.55756 9.2871 2.02734 8.86475C1.46619 8.41915 1.00784 7.85765 0.683594 7.21865Z" fill="#319F43"/>
</g>
</g>
<defs>
<clipPath id="clip0_97_5">
<rect width="10" height="10" fill="white"/>
</clipPath>
</defs>
</svg>
