<?xml version="1.0" encoding="utf-8"?>
<!-- Generator: Adobe Illustrator 27.6.1, SVG Export Plug-In . SVG Version: 6.00 Build 0)  -->
<svg version="1.1" id="레이어_1" xmlns="http://www.w3.org/2000/svg" xmlns:xlink="http://www.w3.org/1999/xlink" x="0px"
	 y="0px" viewBox="0 0 200 248" style="enable-background:new 0 0 200 248;" xml:space="preserve">
<style type="text/css">
	.st0{fill:#FFA9B5;}
	.st1{fill:none;stroke:#CF121B;stroke-width:0.945;stroke-linecap:round;stroke-miterlimit:10;}
	.st2{fill:none;stroke:#00FF00;stroke-width:0.945;stroke-linecap:round;stroke-miterlimit:10;}
	.st3{fill:none;stroke:#0000FF;stroke-width:0.945;stroke-linecap:round;stroke-miterlimit:10;}
</style>
<path class="st0" d="M69.9,109.8V87.2v-4.8V60v-3.4v-23H43.8c-1.9,0-3.5,1.6-3.5,3.5v77.6h29.6V109.8z"/>
<path class="st0" d="M154.7,56.6c1.9,0,3.5-1.6,3.5-3.5v-16c0-1.9-1.6-3.5-3.5-3.5H69.9v23H154.7z"/>
<path class="st0" d="M151.7,82.4c1.9,0,3.5-1.6,3.5-3.5V63.5c0-1.9-1.6-3.5-3.5-3.5H69.9v22.4H151.7z"/>
<path class="st0" d="M152.3,109.8c1.9,0,3.5-1.6,3.5-3.5V90.7c0-1.9-1.6-3.5-3.5-3.5H69.9v22.6C69.9,109.8,152.3,109.8,152.3,109.8z
	"/>
<path class="st0" d="M72.1,137.9h30.8h32.9h18.7h25.4c1.9,0,3.5-1.6,3.5-3.5v-16.2c0-1.9-1.6-3.5-3.5-3.5h-110H40.3H11.8
	c-1.9,0-3.5,1.6-3.5,3.5v16.2c0,1.9,1.6,3.5,3.5,3.5h28.1h29.2H72.1z"/>
<path class="st0" d="M107.4,165.3c-4.5,1.3-11.6,2.5-11.6,2.5l-26.7,6.1V138H39.9v44.3l0.1,19.3c0,1.1,0.5,2.1,1.3,2.7
	c0.8,0.7,1.9,0.9,3,0.7l64.9-14.7c1.6-0.4,2.7-1.8,2.7-3.4v-5.3V168C111.8,167.9,111.9,164,107.4,165.3z"/>
<path class="st0" d="M163.3,144.4l-8.9-6.5c0,0-3.5-2.3-7.6-4.9c-4-2.6-6.5,0.7-6.5,0.7l-4.6,4.3l-16.5,15.3
	c0,0,15.5,11.2,21.6,14.6l22.6-18c0.9-0.7,1.3-1.7,1.3-2.8C164.7,146.1,164.2,145,163.3,144.4z"/>
<path class="st0" d="M187.8,186.3c-0.4-1.2-1.4-2.1-2.6-2.3c-0.1,0-0.3-0.1-0.7-0.1c-9.6-1.7-27.4-6-43.6-15.9
	c-6.2-3.5-21.6-14.6-21.6-14.6c-3.2-2.5-9.7-7.8-16.4-15.3H72.1c-0.1,0.9,0.2,1.8,0.8,2.6c0.1,0.1,0.3,0.5,0.7,0.9
	c8.6,11.7,16.1,20.5,22.2,26.3c0,0,11.1,10.3,16.1,13.8c9.6,7,30.4,20.6,55.8,27.2c0.3,0.1,0.6,0.1,0.9,0.1c1,0,1.9-0.4,2.6-1.2
	l16-18C187.9,188.8,188.2,187.5,187.8,186.3z"/>
<path class="st1" d="M55.1,45.1c2.7,0,5-2.2,5-5c0-2.7-2.2-5-5-5c-2.7,0-5,2.2-5,5C50.2,42.9,52.4,45.1,55.1,45.1z"/>
<path class="st2" d="M55.1,81.4c2.6,0,4.6-2.1,4.6-4.6c0-2.6-2.1-4.6-4.6-4.6c-2.6,0-4.6,2.1-4.6,4.6S52.5,81.4,55.1,81.4z"/>
<path class="st3" d="M55.1,112.7c2.6,0,4.6-2.1,4.6-4.6c0-2.6-2.1-4.6-4.6-4.6c-2.6,0-4.6,2.1-4.6,4.6S52.5,112.7,55.1,112.7z"/>
<path class="st1" d="M69.9,50.1c2.7,0,5-2.2,5-5c0-2.7-2.2-5-5-5c-2.7,0-5,2.2-5,5C65,47.9,67.2,50.1,69.9,50.1z"/>
<path class="st2" d="M109.4,49.7c2.6,0,4.6-2.1,4.6-4.6c0-2.6-2.1-4.6-4.6-4.6c-2.6,0-4.6,2.1-4.6,4.6S106.8,49.7,109.4,49.7z"/>
<path class="st3" d="M139.4,48.9c2.6,0,4.6-2.1,4.6-4.6c0-2.6-2.1-4.6-4.6-4.6c-2.6,0-4.6,2.1-4.6,4.6S136.8,48.9,139.4,48.9z"/>
<path class="st1" d="M69.9,76.2c2.7,0,5-2.2,5-5c0-2.7-2.2-5-5-5c-2.7,0-5,2.2-5,5C65,74,67.2,76.2,69.9,76.2z"/>
<path class="st2" d="M109.4,75.8c2.6,0,4.6-2.1,4.6-4.6c0-2.6-2.1-4.6-4.6-4.6c-2.6,0-4.6,2.1-4.6,4.6S106.8,75.8,109.4,75.8z"/>
<path class="st3" d="M139.4,76.5c2.6,0,4.6-2.1,4.6-4.6c0-2.6-2.1-4.6-4.6-4.6c-2.6,0-4.6,2.1-4.6,4.6S136.8,76.5,139.4,76.5z"/>
<path class="st1" d="M69.9,103.5c2.7,0,5-2.2,5-5c0-2.7-2.2-5-5-5c-2.7,0-5,2.2-5,5C65,101.3,67.2,103.5,69.9,103.5z"/>
<path class="st2" d="M109.4,103.1c2.6,0,4.6-2.1,4.6-4.6c0-2.6-2.1-4.6-4.6-4.6c-2.6,0-4.6,2.1-4.6,4.6S106.8,103.1,109.4,103.1z"/>
<path class="st3" d="M139.4,103.2c2.6,0,4.6-2.1,4.6-4.6c0-2.6-2.1-4.6-4.6-4.6c-2.6,0-4.6,2.1-4.6,4.6S136.8,103.2,139.4,103.2z"/>
<path class="st1" d="M22.8,131.9c2.7,0,5-2.2,5-5c0-2.7-2.2-5-5-5c-2.7,0-5,2.2-5,5C17.9,129.7,20.1,131.9,22.8,131.9z"/>
<path class="st2" d="M102.4,131.3c2.6,0,4.6-2.1,4.6-4.6c0-2.6-2.1-4.6-4.6-4.6c-2.6,0-4.6,2.1-4.6,4.6
	C97.8,129.2,99.8,131.3,102.4,131.3z"/>
<path class="st3" d="M161.5,131.3c2.6,0,4.6-2.1,4.6-4.6c0-2.6-2.1-4.6-4.6-4.6c-2.6,0-4.6,2.1-4.6,4.6
	C156.9,129.2,158.9,131.3,161.5,131.3z"/>
<path class="st1" d="M55.1,143.1c2.7,0,5-2.2,5-5c0-2.7-2.2-5-5-5c-2.7,0-5,2.2-5,5C50.2,140.9,52.4,143.1,55.1,143.1z"/>
<path class="st2" d="M55.1,192.4c2.6,0,4.6-2.1,4.6-4.6c0-2.6-2.1-4.6-4.6-4.6c-2.6,0-4.6,2.1-4.6,4.6S52.5,192.4,55.1,192.4z"/>
<path class="st3" d="M99.2,183.2c2.6,0,4.6-2.1,4.6-4.6c0-2.6-2.1-4.6-4.6-4.6c-2.6,0-4.6,2.1-4.6,4.6S96.6,183.2,99.2,183.2z"/>
<path class="st1" d="M153.6,147.1c2.7,0,5-2.2,5-5c0-2.7-2.2-5-5-5c-2.7,0-5,2.2-5,5C148.7,144.9,150.9,147.1,153.6,147.1z"/>
<path class="st2" d="M137.4,159.2c2.6,0,4.6-2.1,4.6-4.6c0-2.6-2.1-4.6-4.6-4.6c-2.6,0-4.6,2.1-4.6,4.6S134.8,159.2,137.4,159.2z"/>
<path class="st1" d="M89.6,143.1c2.7,0,5-2.2,5-5c0-2.7-2.2-5-5-5c-2.7,0-5,2.2-5,5C84.8,140.9,86.9,143.1,89.6,143.1z"/>
<path class="st2" d="M120.1,176.1c2.6,0,4.6-2.1,4.6-4.6c0-2.6-2.1-4.6-4.6-4.6c-2.6,0-4.6,2.1-4.6,4.6S117.5,176.1,120.1,176.1z"/>
<path class="st3" d="M153.6,192.4c2.6,0,4.6-2.1,4.6-4.6c0-2.6-2.1-4.6-4.6-4.6c-2.6,0-4.6,2.1-4.6,4.6S151,192.4,153.6,192.4z"/>
</svg>
